<svg width="469" height="246" viewBox="0 0 469 246" fill="none" xmlns="http://www.w3.org/2000/svg">
<path d="M1.01033 23.421C-2.04616 31.7121 2.11665 41.1199 10.3082 44.4339C18.4998 47.748 27.6182 43.7133 30.6746 35.4222C33.7311 27.131 29.5683 17.7232 21.3768 14.4092C13.1852 11.0951 4.06683 15.1298 1.01033 23.421ZM214.064 128.26L216.714 129.689L214.064 128.26ZM437.375 199.959C434.318 208.251 438.481 217.658 446.672 220.972C454.864 224.286 463.982 220.252 467.039 211.961C470.095 203.67 465.933 194.262 457.741 190.948C449.549 187.634 440.431 191.668 437.375 199.959ZM15.8425 29.4216C16.8343 32.3014 16.8342 32.3014 16.8342 32.3014C16.8342 32.3014 16.8341 32.3014 16.8341 32.3014C16.8341 32.3014 16.8342 32.3014 16.8342 32.3014C16.8344 32.3013 16.8347 32.3012 16.8352 32.301C16.8362 32.3007 16.8379 32.3001 16.8402 32.2993C16.8449 32.2978 16.8522 32.2953 16.8621 32.292C16.8819 32.2853 16.9123 32.2751 16.9531 32.2614C17.0346 32.2341 17.1577 32.1931 17.321 32.1389C17.6478 32.0306 18.1358 31.87 18.7755 31.6626C20.055 31.2478 21.9411 30.646 24.3574 29.901L22.522 24.0935C20.0776 24.8471 18.1651 25.4574 16.8611 25.8801C16.2091 26.0915 15.7092 26.256 15.371 26.3681C15.2019 26.4241 15.0731 26.4671 14.986 26.4963C14.9425 26.5109 14.9093 26.522 14.8867 26.5296C14.8754 26.5334 14.8668 26.5363 14.8608 26.5384C14.8578 26.5394 14.8554 26.5402 14.8537 26.5407C14.8529 26.541 14.8522 26.5412 14.8517 26.5414C14.8515 26.5415 14.8513 26.5416 14.8511 26.5416C14.851 26.5416 14.8509 26.5417 14.8509 26.5417C14.8508 26.5417 14.8507 26.5417 15.8425 29.4216ZM39.5847 25.4433C44.2146 24.1541 49.4169 22.7626 55.0647 21.3421L53.52 15.4533C47.8212 16.8867 42.5722 18.2906 37.9004 19.5915L39.5847 25.4433ZM70.653 17.6349C75.67 16.5116 80.8968 15.4101 86.2702 14.3669L85.0319 8.40994C79.6003 9.46441 74.3198 10.5772 69.2543 11.7114L70.653 17.6349ZM102.003 11.5706C107.22 10.7327 112.51 9.97596 117.821 9.32971L116.985 3.30933C111.594 3.96526 106.231 4.73256 100.949 5.581L102.003 11.5706ZM133.701 7.75689C139.056 7.35586 144.378 7.09754 149.613 7.01145L149.38 0.949531C144.02 1.03768 138.585 1.3019 133.131 1.71035L133.701 7.75689ZM165.503 7.32852C170.96 7.65719 176.239 8.22657 181.275 9.07225L182.106 3.09046C176.836 2.20547 171.348 1.61558 165.716 1.27635L165.503 7.32852ZM196.558 12.7913C201.748 14.5216 206.478 16.6721 210.662 19.2872L213.675 14.1361C209.018 11.2249 203.841 8.88522 198.282 7.03198L196.558 12.7913ZM222.173 29.4088C225.233 33.2629 227.63 37.7276 229.241 42.8996L234.894 41.1849C233.057 35.2822 230.297 30.1244 226.75 25.657L222.173 29.4088ZM231.572 58.2394C231.664 63.0235 231.265 68.2513 230.308 73.9581L236.161 75.1144C237.171 69.0845 237.608 63.4744 237.508 58.2608L231.572 58.2394ZM226.639 89.5181C225.22 94.29 223.478 99.3243 221.391 104.633L226.908 107.003C229.051 101.552 230.85 96.3547 232.323 91.402L226.639 89.5181ZM215.054 119.316C213.906 121.771 212.694 124.275 211.415 126.831L216.714 129.689C218.016 127.087 219.251 124.535 220.422 122.031L215.054 119.316ZM211.415 126.831C210.109 129.44 208.876 131.997 207.715 134.502L213.092 137.198C214.227 134.75 215.434 132.247 216.714 129.689L211.415 126.831ZM201.355 149.551C199.267 155.064 197.572 160.298 196.249 165.263L201.98 166.979C203.244 162.234 204.874 157.196 206.899 151.851L201.355 149.551ZM193.095 181.742C192.435 187.873 192.468 193.523 193.155 198.715L199.038 198.039C198.425 193.404 198.381 188.255 198.996 182.542L193.095 181.742ZM198.358 215.412C201.169 220.692 204.928 225.167 209.454 228.917L213.129 224.244C209.18 220.972 205.959 217.121 203.56 212.612L198.358 215.412ZM224.222 237.696C229.127 239.77 234.459 241.393 240.118 242.628L241.229 236.7C235.863 235.529 230.891 234.008 226.383 232.102L224.222 237.696ZM256.479 245.098C261.723 245.585 267.16 245.836 272.735 245.882L272.645 239.819C267.212 239.775 261.941 239.531 256.881 239.06L256.479 245.098ZM288.954 245.484C294.264 245.195 299.656 244.759 305.088 244.198L304.356 238.166C299.007 238.718 293.709 239.146 288.501 239.43L288.954 245.484ZM321.112 242.218C326.421 241.46 331.735 240.606 337.017 239.677L335.879 233.701C330.652 234.621 325.4 235.464 320.158 236.213L321.112 242.218ZM352.824 236.666C358.148 235.578 363.402 234.432 368.549 233.251L367.12 227.334C362.015 228.506 356.805 229.642 351.53 230.72L352.824 236.666ZM384.179 229.482C389.54 228.13 394.723 226.762 399.676 225.408L398.019 219.549C393.099 220.894 387.952 222.252 382.63 223.594L384.179 229.482ZM415.141 221.026C420.744 219.382 425.882 217.814 430.448 216.382L428.587 210.583C424.051 212.005 418.947 213.563 413.38 215.196L415.141 221.026ZM445.753 211.412C448.154 210.603 450.025 209.957 451.297 209.512C451.934 209.29 452.42 209.118 452.749 209.001C452.913 208.942 453.038 208.898 453.123 208.868C453.165 208.853 453.197 208.841 453.219 208.833C453.229 208.829 453.238 208.826 453.243 208.824C453.246 208.823 453.249 208.822 453.25 208.822C453.251 208.822 453.252 208.821 453.252 208.821C453.252 208.821 453.252 208.821 453.253 208.821C453.253 208.821 453.253 208.821 453.253 208.821C453.253 208.821 453.253 208.821 452.207 205.96C451.161 203.099 451.161 203.099 451.161 203.099C451.161 203.099 451.161 203.099 451.161 203.099C451.161 203.099 451.161 203.099 451.16 203.099C451.16 203.099 451.16 203.099 451.159 203.1C451.158 203.1 451.157 203.101 451.154 203.101C451.15 203.103 451.143 203.106 451.133 203.109C451.113 203.116 451.083 203.127 451.043 203.141C450.963 203.17 450.843 203.213 450.683 203.27C450.363 203.383 449.886 203.552 449.259 203.771C448.006 204.209 446.156 204.849 443.776 205.651L445.753 211.412ZM1.01033 23.421C-2.04616 31.7121 2.11665 41.1199 10.3082 44.4339C18.4998 47.748 27.6182 43.7133 30.6746 35.4222C33.7311 27.131 29.5683 17.7232 21.3768 14.4092C13.1852 11.0951 4.06683 15.1298 1.01033 23.421ZM214.064 128.26L216.714 129.689L214.064 128.26ZM437.375 199.959C434.318 208.251 438.481 217.658 446.672 220.972C454.864 224.286 463.982 220.252 467.039 211.961C470.095 203.67 465.933 194.262 457.741 190.948C449.549 187.634 440.431 191.668 437.375 199.959ZM15.8425 29.4216C16.8343 32.3014 16.8342 32.3014 16.8342 32.3014C16.8342 32.3014 16.8341 32.3014 16.8341 32.3014C16.8341 32.3014 16.8342 32.3014 16.8342 32.3014C16.8344 32.3013 16.8347 32.3012 16.8352 32.301C16.8362 32.3007 16.8379 32.3001 16.8402 32.2993C16.8449 32.2978 16.8522 32.2953 16.8621 32.292C16.8819 32.2853 16.9123 32.2751 16.9531 32.2614C17.0346 32.2341 17.1577 32.1931 17.321 32.1389C17.6478 32.0306 18.1358 31.87 18.7755 31.6626C20.055 31.2478 21.9411 30.646 24.3574 29.901L22.522 24.0935C20.0776 24.8471 18.1651 25.4574 16.8611 25.8801C16.2091 26.0915 15.7092 26.256 15.371 26.3681C15.2019 26.4241 15.0731 26.4671 14.986 26.4963C14.9425 26.5109 14.9093 26.522 14.8867 26.5296C14.8754 26.5334 14.8668 26.5363 14.8608 26.5384C14.8578 26.5394 14.8554 26.5402 14.8537 26.5407C14.8529 26.541 14.8522 26.5412 14.8517 26.5414C14.8515 26.5415 14.8513 26.5416 14.8511 26.5416C14.851 26.5416 14.8509 26.5417 14.8509 26.5417C14.8508 26.5417 14.8507 26.5417 15.8425 29.4216ZM39.5847 25.4433C44.2146 24.1541 49.4169 22.7626 55.0647 21.3421L53.52 15.4533C47.8212 16.8867 42.5722 18.2906 37.9004 19.5915L39.5847 25.4433ZM70.653 17.6349C75.67 16.5116 80.8968 15.4101 86.2702 14.3669L85.0319 8.40994C79.6003 9.46441 74.3198 10.5772 69.2543 11.7114L70.653 17.6349ZM102.003 11.5706C107.22 10.7327 112.51 9.97596 117.821 9.32971L116.985 3.30933C111.594 3.96526 106.231 4.73256 100.949 5.581L102.003 11.5706ZM133.701 7.75689C139.056 7.35586 144.378 7.09754 149.613 7.01145L149.38 0.949531C144.02 1.03768 138.585 1.3019 133.131 1.71035L133.701 7.75689ZM165.503 7.32852C170.96 7.65719 176.239 8.22657 181.275 9.07225L182.106 3.09046C176.836 2.20547 171.348 1.61558 165.716 1.27635L165.503 7.32852ZM196.558 12.7913C201.748 14.5216 206.478 16.6721 210.662 19.2872L213.675 14.1361C209.018 11.2249 203.841 8.88522 198.282 7.03198L196.558 12.7913ZM222.173 29.4088C225.233 33.2629 227.63 37.7276 229.241 42.8996L234.894 41.1849C233.057 35.2822 230.297 30.1244 226.75 25.657L222.173 29.4088ZM231.572 58.2394C231.664 63.0235 231.265 68.2513 230.308 73.9581L236.161 75.1144C237.171 69.0845 237.608 63.4744 237.508 58.2608L231.572 58.2394ZM226.639 89.5181C225.22 94.29 223.478 99.3243 221.391 104.633L226.908 107.003C229.051 101.552 230.85 96.3547 232.323 91.402L226.639 89.5181ZM215.054 119.316C213.906 121.771 212.694 124.275 211.415 126.831L216.714 129.689C218.016 127.087 219.251 124.535 220.422 122.031L215.054 119.316ZM211.415 126.831C210.109 129.44 208.876 131.997 207.715 134.502L213.092 137.198C214.227 134.75 215.434 132.247 216.714 129.689L211.415 126.831ZM201.355 149.551C199.267 155.064 197.572 160.298 196.249 165.263L201.98 166.979C203.244 162.234 204.874 157.196 206.899 151.851L201.355 149.551ZM193.095 181.742C192.435 187.873 192.468 193.523 193.155 198.715L199.038 198.039C198.425 193.404 198.381 188.255 198.996 182.542L193.095 181.742ZM198.358 215.412C201.169 220.692 204.928 225.167 209.454 228.917L213.129 224.244C209.18 220.972 205.959 217.121 203.56 212.612L198.358 215.412ZM224.222 237.696C229.127 239.77 234.459 241.393 240.118 242.628L241.229 236.7C235.863 235.529 230.891 234.008 226.383 232.102L224.222 237.696ZM256.479 245.098C261.723 245.585 267.16 245.836 272.735 245.882L272.645 239.819C267.212 239.775 261.941 239.531 256.881 239.06L256.479 245.098ZM288.954 245.484C294.264 245.195 299.656 244.759 305.088 244.198L304.356 238.166C299.007 238.718 293.709 239.146 288.501 239.43L288.954 245.484ZM321.112 242.218C326.421 241.46 331.735 240.606 337.017 239.677L335.879 233.701C330.652 234.621 325.4 235.464 320.158 236.213L321.112 242.218ZM352.824 236.666C358.148 235.578 363.402 234.432 368.549 233.251L367.12 227.334C362.015 228.506 356.805 229.642 351.53 230.72L352.824 236.666ZM384.179 229.482C389.54 228.13 394.723 226.762 399.676 225.408L398.019 219.549C393.099 220.894 387.952 222.252 382.63 223.594L384.179 229.482ZM415.141 221.026C420.744 219.382 425.882 217.814 430.448 216.382L428.587 210.583C424.051 212.005 418.947 213.563 413.38 215.196L415.141 221.026ZM445.753 211.412C448.154 210.603 450.025 209.957 451.297 209.512C451.934 209.29 452.42 209.118 452.749 209.001C452.913 208.942 453.038 208.898 453.123 208.868C453.165 208.853 453.197 208.841 453.219 208.833C453.229 208.829 453.238 208.826 453.243 208.824C453.246 208.823 453.249 208.822 453.25 208.822C453.251 208.822 453.252 208.821 453.252 208.821C453.252 208.821 453.252 208.821 453.253 208.821C453.253 208.821 453.253 208.821 453.253 208.821C453.253 208.821 453.253 208.821 452.207 205.96C451.161 203.099 451.161 203.099 451.161 203.099C451.161 203.099 451.161 203.099 451.161 203.099C451.161 203.099 451.161 203.099 451.16 203.099C451.16 203.099 451.16 203.099 451.159 203.1C451.158 203.1 451.157 203.101 451.154 203.101C451.15 203.103 451.143 203.106 451.133 203.109C451.113 203.116 451.083 203.127 451.043 203.141C450.963 203.17 450.843 203.213 450.683 203.27C450.363 203.383 449.886 203.552 449.259 203.771C448.006 204.209 446.156 204.849 443.776 205.651L445.753 211.412Z" fill="#AEDCE6"/>
</svg>
