<svg width="45" height="40" viewBox="0 0 45 40" fill="none" xmlns="http://www.w3.org/2000/svg">
<g clip-path="url(#clip0_8_31)">
<path fill-rule="evenodd" clip-rule="evenodd" d="M29.5575 6.66663C30.602 6.66666 31.6258 6.92518 32.5143 7.41324C33.4028 7.9013 34.1209 8.59961 34.5881 9.42996L37.1869 14.0483C37.6444 13.8816 38.0944 13.7016 38.5369 13.5083C38.9819 13.3107 39.4971 13.2784 39.969 13.4184C40.4409 13.5584 40.8308 13.8593 41.0531 14.255C41.2754 14.6506 41.3118 15.1085 41.1543 15.5279C40.9967 15.9474 40.6582 16.294 40.2131 16.4916C39.7624 16.67 39.3093 16.8433 38.8538 17.0116L40.6556 20.2166C41.0467 20.9115 41.2502 21.6779 41.25 22.455V26.6666C41.2512 27.3703 41.0847 28.0661 40.7615 28.7085C40.4383 29.3508 39.9658 29.925 39.375 30.3933V32.5C39.375 33.163 39.0787 33.7989 38.5512 34.2677C38.0238 34.7366 37.3084 35 36.5625 35C35.8166 35 35.1012 34.7366 34.5738 34.2677C34.0463 33.7989 33.75 33.163 33.75 32.5V31.6666H11.25V32.5C11.25 33.163 10.9537 33.7989 10.4262 34.2677C9.89879 34.7366 9.18342 35 8.4375 35C7.69158 35 6.97621 34.7366 6.44876 34.2677C5.92132 33.7989 5.625 33.163 5.625 32.5V30.3933C4.47375 29.4766 3.75 28.1466 3.75 26.6666V22.4533C3.75035 21.6774 3.95384 20.9122 4.34437 20.2183L6.13125 17.0383C5.67937 16.8683 5.23125 16.6883 4.79063 16.4933C4.34781 16.2931 4.01121 15.9463 3.85337 15.5276C3.69554 15.1089 3.72912 14.6519 3.94688 14.255C4.05686 14.059 4.20921 13.8842 4.39522 13.7407C4.58123 13.5971 4.79724 13.4875 5.03093 13.4181C5.26461 13.3488 5.51138 13.3211 5.75712 13.3365C6.00287 13.352 6.24277 13.4104 6.46312 13.5083C6.90563 13.7033 7.3575 13.8816 7.81312 14.0483L10.4119 9.43163C10.8788 8.60097 11.5968 7.90231 12.4853 7.41395C13.3739 6.92559 14.3978 6.66681 15.4425 6.66663H29.5575ZM14.0625 21.6666C13.3166 21.6666 12.6012 21.93 12.0738 22.3989C11.5463 22.8677 11.25 23.5036 11.25 24.1666C11.25 24.8297 11.5463 25.4656 12.0738 25.9344C12.6012 26.4032 13.3166 26.6666 14.0625 26.6666C14.8084 26.6666 15.5238 26.4032 16.0512 25.9344C16.5787 25.4656 16.875 24.8297 16.875 24.1666C16.875 23.5036 16.5787 22.8677 16.0512 22.3989C15.5238 21.93 14.8084 21.6666 14.0625 21.6666ZM30.9375 21.6666C30.1916 21.6666 29.4762 21.93 28.9488 22.3989C28.4213 22.8677 28.125 23.5036 28.125 24.1666C28.125 24.8297 28.4213 25.4656 28.9488 25.9344C29.4762 26.4032 30.1916 26.6666 30.9375 26.6666C31.6834 26.6666 32.3988 26.4032 32.9262 25.9344C33.4537 25.4656 33.75 24.8297 33.75 24.1666C33.75 23.5036 33.4537 22.8677 32.9262 22.3989C32.3988 21.93 31.6834 21.6666 30.9375 21.6666ZM29.5575 9.99996H15.4425C15.1339 9.99992 14.83 10.0676 14.5579 10.197C14.2858 10.3263 14.0538 10.5134 13.8825 10.7416L13.7662 10.9216L11.385 15.1516C14.2875 15.925 18.1988 16.6666 22.5 16.6666C26.5163 16.6666 30.1894 16.02 33.0188 15.305L33.6131 15.1516L31.2338 10.9216C31.0958 10.6763 30.8918 10.4651 30.6399 10.3066C30.3881 10.1482 30.0962 10.0474 29.79 10.0133L29.5594 9.99996H29.5575Z" fill="black"/>
</g>
<defs>
<clipPath id="clip0_8_31">
<rect width="45" height="40" fill="white"/>
</clipPath>
</defs>
</svg>
