<svg width="41" height="58" viewBox="0 0 41 58" fill="none" xmlns="http://www.w3.org/2000/svg">
<path d="M40.25 20.7982C40.25 18.1937 39.7295 15.6146 38.7181 13.2083C37.7067 10.802 36.2243 8.61562 34.3555 6.77392C32.4867 4.93223 30.2682 3.47132 27.8265 2.4746C25.3848 1.47788 22.7679 0.964874 20.125 0.964874C17.4821 0.964874 14.8652 1.47788 12.4235 2.4746C9.98182 3.47132 7.76326 4.93223 5.89448 6.77392C4.0257 8.61562 2.5433 10.802 1.53192 13.2083C0.520548 15.6146 -3.93816e-08 18.1937 0 20.7982C0 24.728 1.17588 28.383 3.17688 31.4657H3.15388L20.125 57.6315L37.0961 31.4657H37.076C39.1485 28.2827 40.2502 24.5802 40.25 20.7982ZM20.125 29.2982C17.8375 29.2982 15.6437 28.4027 14.0262 26.8086C12.4087 25.2146 11.5 23.0525 11.5 20.7982C11.5 18.5439 12.4087 16.3819 14.0262 14.7878C15.6437 13.1937 17.8375 12.2982 20.125 12.2982C22.4125 12.2982 24.6063 13.1937 26.2238 14.7878C27.8413 16.3819 28.75 18.5439 28.75 20.7982C28.75 23.0525 27.8413 25.2146 26.2238 26.8086C24.6063 28.4027 22.4125 29.2982 20.125 29.2982Z" fill="black"/>
</svg>
