<svg width="48" height="43" viewBox="0 0 48 43" fill="none" xmlns="http://www.w3.org/2000/svg">
<path d="M29.505 10.8978L25.341 14.6294L19.5855 13.4737C20.1285 12.7938 20.9595 11.2109 20.2815 10.6035C19.506 9.91011 17.3145 10.9797 16.8255 11.4165L15.456 12.6433L11.421 11.8317L8.39103 14.546L11.739 15.9731L11.616 16.0833L14.166 18.3677L15.201 17.4459L19.9455 19.4669L14.355 24.4696H9.62103L7.91553 25.9988L13.3155 27.2727L16.0605 29.7318L17.481 34.5666L19.1865 33.0387V28.7965L24.774 23.791L27.03 28.0427L25.998 28.9645L28.551 31.2489L28.671 31.1414L30.2655 34.1379L33.2955 31.4235L32.3895 27.8115L33.7575 26.586C34.2465 26.148 35.4375 24.1807 34.6635 23.4874C33.984 22.88 32.2185 23.6217 31.4595 24.1109L30.1695 18.9535L34.3335 15.222C35.754 13.9481 39.7335 8.6873 38.2635 7.37445C36.798 6.06026 30.9255 9.62255 29.5035 10.8951L29.505 10.8978Z" fill="black"/>
</svg>
