<svg width="32" height="34" viewBox="0 0 32 34" fill="none" xmlns="http://www.w3.org/2000/svg">
<path d="M0.651369 23.6992V7.23227C0.651369 5.70114 1.09869 4.48028 1.99333 3.56969C2.88797 2.6591 4.06608 1.96575 5.52767 1.48966C6.98926 1.01356 8.65566 0.69578 10.5269 0.536311C12.3981 0.376842 14.3076 0.297685 16.2555 0.298841C18.4011 0.298841 20.4251 0.378575 22.3275 0.538044C24.2299 0.697513 25.8879 1.0153 27.3013 1.49139C28.7148 1.96749 29.8279 2.66083 30.6406 3.57142C31.4533 4.48201 31.8597 5.7023 31.8597 7.23227V23.6992C31.8597 25.4036 31.2017 26.8412 29.8858 28.0118C28.5698 29.1824 26.9522 29.7671 25.0329 29.7659L27.9587 32.366V33.2326H24.0576L20.1566 29.7659H12.3545L8.45345 33.2326H4.55241V32.366L7.47819 29.7659C5.56018 29.7659 3.94255 29.1812 2.6253 28.0118C1.30804 26.8423 0.650069 25.4048 0.651369 23.6992ZM4.55241 14.1657H14.305V8.96563H4.55241V14.1657ZM18.2061 14.1657H27.9587V8.96563H18.2061V14.1657ZM9.42871 24.5659C10.2739 24.5659 10.9729 24.3203 11.5255 23.8292C12.0782 23.3381 12.3545 22.7169 12.3545 21.9658C12.3545 21.2147 12.0782 20.5936 11.5255 20.1025C10.9729 19.6113 10.2739 19.3658 9.42871 19.3658C8.58349 19.3658 7.88455 19.6113 7.3319 20.1025C6.77926 20.5936 6.50293 21.2147 6.50293 21.9658C6.50293 22.7169 6.77926 23.3381 7.3319 23.8292C7.88455 24.3203 8.58349 24.5659 9.42871 24.5659ZM23.0824 24.5659C23.9276 24.5659 24.6265 24.3203 25.1792 23.8292C25.7318 23.3381 26.0081 22.7169 26.0081 21.9658C26.0081 21.2147 25.7318 20.5936 25.1792 20.1025C24.6265 19.6113 23.9276 19.3658 23.0824 19.3658C22.2371 19.3658 21.5382 19.6113 20.9855 20.1025C20.4329 20.5936 20.1566 21.2147 20.1566 21.9658C20.1566 22.7169 20.4329 23.3381 20.9855 23.8292C21.5382 24.3203 22.2371 24.5659 23.0824 24.5659Z" fill="black"/>
</svg>
